<svg width="16" height="16" fill="currentColor" viewBox="0 0 16 16" xmlns="http://www.w3.org/2000/svg">
  <path d="m 7.5514467,0.51530578 a 0.25,0.25 0 0 0 -0.184616,0.00491 L 4.5495073,1.7439948 A 0.25,0.25 0 0 0 4.4418341,2.1113527 l 1.7109261,2.551014 A 0.25,0.25 0 0 0 6.6001946,4.5940519 L 7.0127588,3.1864711 c 4.7865622,1.40495 4.7869062,8.1787909 0.011617,9.5916639 L 6.6102885,11.378602 a 0.25,0.25 0 0 0 -0.4481142,-0.06825 l -1.7036144,2.555641 a 0.25,0.25 0 0 0 0.1074804,0.369362 l 2.8213669,1.213652 A 0.25,0.25 0 0 0 7.7256158,15.149223 L 7.3073283,13.736245 C 13.039781,12.04133 13.039219,3.9118274 7.2940276,2.2268421 L 7.7065919,0.81926118 A 0.25,0.25 0 0 0 7.5514467,0.51530578 Z" />
</svg>
